<?xml version="1.0" encoding="iso-8859-1"?>
<!-- Uploaded to: SVG Repo, www.svgrepo.com, Generator: SVG Repo Mixer Tools -->
<svg height="800px" width="800px" version="1.1" id="Layer_1" xmlns="http://www.w3.org/2000/svg" xmlns:xlink="http://www.w3.org/1999/xlink" 
	 viewBox="0 0 512.001 512.001" xml:space="preserve">
<path style="fill:#FFEAB2;" d="M250.408,238.426c-77.278,0-134.55-72.919-115.656-148.184c2.16-8.606,9.896-14.642,18.77-14.642
	h193.774c8.873,0,16.61,6.035,18.77,14.642C384.964,165.537,327.641,238.426,250.408,238.426z"/>
<path style="fill:#FFE08C;" d="M366.064,90.242c-2.16-8.606-9.896-14.642-18.77-14.642h-96.891v162.825c0.001,0,0.003,0,0.004,0
	C327.673,238.426,384.959,165.515,366.064,90.242z"/>
<path style="fill:#60BFE1;" d="M408.639,512H92.175c-10.687,0-19.352-8.664-19.352-19.352v-61.376
	c0-97.92,79.663-177.583,177.583-177.583S427.99,333.353,427.99,431.272v61.376C427.991,503.336,419.327,512,408.639,512z"/>
<path style="fill:#2E9ADA;" d="M250.404,253.691v258.311h158.236c10.687,0,19.352-8.664,19.352-19.352v-61.377
	C427.991,333.666,348.641,253.691,250.404,253.691z"/>
<path style="fill:#C7E5F4;" d="M72.824,431.272v16.863h355.167v-16.863c0-7.394-0.462-14.682-1.344-21.84H74.168
	C73.286,416.592,72.824,423.88,72.824,431.272z"/>
<path style="fill:#60BFE1;" d="M419.826,75.601h-58.429C343.736,30.414,300.062,0,250.408,0
	c-54.832,0-102.376,37.088-115.645,90.201c-0.004,0.014-0.009,0.027-0.012,0.041c-0.003,0.009-0.005,0.019-0.006,0.028l-0.001,0.003
	v0.001c-1.965,7.837-3.11,15.899-3.443,24.028c6.84,0,285.679,0,288.525,0c10.687,0,19.352-8.664,19.352-19.352
	S430.513,75.601,419.826,75.601z"/>
<path style="fill:#FFEAB2;" d="M196.114,262.19c0,12.746,0,45.907,0,59.46c0,29.938,24.356,54.294,54.294,54.294
	s54.294-24.356,54.294-54.294c0-13.678,0-46.85,0-59.46C270.046,251.036,231.672,250.745,196.114,262.19z"/>
<path style="fill:#60BFE1;" d="M427.991,431.272c0-7.394-0.462-14.682-1.344-21.84H250.404v38.703h177.588v-16.863H427.991z"/>
<path style="fill:#2E9ADA;" d="M419.826,75.601h-58.429C343.736,30.414,300.062,0,250.408,0c-0.001,0-0.003,0-0.004,0v114.304
	c6.471,0,163.043,0,169.422,0c10.687,0,19.352-8.664,19.352-19.352S430.513,75.601,419.826,75.601z"/>
<path style="fill:#FFE08C;" d="M250.404,253.691v122.254c0.001,0,0.003,0,0.004,0c29.938,0,54.294-24.356,54.294-54.294
	c0-13.679,0-46.858,0-59.46C287.198,256.556,268.569,253.691,250.404,253.691z"/>
</svg>