<?xml version="1.0" encoding="iso-8859-1"?>
<!-- Uploaded to: SVG Repo, www.svgrepo.com, Generator: SVG Repo Mixer Tools -->
<svg height="800px" width="800px" version="1.1" id="Layer_1" xmlns="http://www.w3.org/2000/svg" xmlns:xlink="http://www.w3.org/1999/xlink" 
	 viewBox="0 0 512.001 512.001" xml:space="preserve">
<path style="fill:#60BFE1;" d="M336.516,119.214c0,44.396-36.119,80.515-80.515,80.515s-80.515-36.119-80.515-80.515
	c0-25.571-38.703-25.598-38.703,0v99.867c0,10.687,8.664,19.351,19.351,19.351h99.867h99.867c10.687,0,19.351-8.664,19.351-19.351
	v-99.867C375.219,93.643,336.516,93.617,336.516,119.214z"/>
<path style="fill:#2E9ADA;" d="M336.516,119.214c0,44.396-36.119,80.515-80.515,80.515v38.703h99.867
	c10.687,0,19.351-8.664,19.351-19.351v-99.867C375.219,93.643,336.516,93.617,336.516,119.214z"/>
<path style="fill:#FFEAB2;" d="M256.001,238.43c-65.734,0-119.214-53.48-119.214-119.214C136.786,53.48,190.267,0,256.001,0
	s119.214,53.48,119.214,119.214C375.215,184.95,321.736,238.43,256.001,238.43z"/>
<path style="fill:#FFE08C;" d="M256.001,0v238.43c65.734,0,119.214-53.48,119.214-119.214C375.215,53.48,321.736,0,256.001,0z"/>
<g>
	<path style="fill:#60BFE1;" d="M256.355,118.274c-35.543-12.885-62.27-40.977-73.327-77.074
		c-2.526-8.245,0.708-17.166,7.932-21.876C210.341,6.681,232.832,0,256.001,0c54.565,0,99.317,36.351,113.992,84.261
		C378.488,111.987,311.594,138.297,256.355,118.274z"/>
	<path style="fill:#60BFE1;" d="M414.231,512H97.771c-10.687,0-19.351-8.664-19.351-19.351v-61.375
		c0-97.918,79.662-177.581,177.581-177.581s177.581,79.662,177.581,177.581v61.375C433.582,503.337,424.918,512,414.231,512z"/>
</g>
<path style="fill:#2E9ADA;" d="M256.001,253.694v258.307h158.229c10.687,0,19.351-8.664,19.351-19.351v-61.375
	C433.582,333.356,353.92,253.694,256.001,253.694z"/>
<path style="fill:#FFEAB2;" d="M377.452,301.847c-72.927-68.476-178.753-60.235-242.904,0
	c2.974,2.974,104.784,104.784,107.768,107.768c3.779,3.779,8.731,5.667,13.683,5.667c4.953,0,9.905-1.889,13.683-5.667
	C272.667,406.634,374.032,305.267,377.452,301.847z"/>
<path style="fill:#2E9ADA;" d="M369.993,84.261C355.338,36.418,310.636,0,256.001,0v118.139c0.119,0.044,0.235,0.092,0.353,0.134
	C310.971,138.071,378.654,112.525,369.993,84.261z"/>
<path style="fill:#FFE08C;" d="M377.452,301.847c-35.224-33.073-78.897-48.154-121.452-48.154v161.59
	c4.953,0,9.905-1.889,13.683-5.667L377.452,301.847z"/>
</svg>