<svg width="360" height="282" viewBox="0 0 360 282" fill="none" xmlns="http://www.w3.org/2000/svg">
<path d="M57.2131 120.984C88.178 120.984 113.28 95.8824 113.28 64.9175C113.28 33.9526 88.178 8.85059 57.2131 8.85059C26.2482 8.85059 1.14622 33.9526 1.14622 64.9175C1.14622 95.8824 26.2482 120.984 57.2131 120.984Z" fill="#EBEBEB"/>
<path d="M290.858 0.758057C290.858 0.758057 308.687 58.9596 284.495 94.3224C260.302 129.685 141.256 152.055 117.069 187.418C92.8826 222.781 110.706 280.983 110.706 280.983C110.706 280.983 22.1974 174.425 46.3549 139.063C70.5125 103.7 331.063 178.035 355.267 142.672C379.471 107.309 290.858 0.758057 290.858 0.758057Z" fill="#EBEBEB"/>
<path d="M90.4067 65.8031C90.4067 65.8031 98.7021 88.6128 94.2652 100.981C104.418 94.3398 104.985 92.8357 104.985 92.8357C104.985 92.8357 112.973 77.8472 105.395 54.5342C100.598 58.5478 95.5949 62.3092 90.4067 65.8031Z" fill="#A5CFC6"/>
<path d="M32.6737 44.5492L41.8774 86.1077L67.1284 77.8585L50.4911 38.8743L32.6737 44.5492Z" fill="#A5CFC6"/>
<path d="M18.5239 46.4758C18.5239 46.4758 12.4151 68.7649 21.1156 89.2028C28.1528 88.6624 35.143 87.6243 42.0336 86.0963C42.0336 86.0963 34.6926 62.1875 33.1886 44.561C28.3494 45.5307 23.4499 46.1705 18.5239 46.4758Z" fill="#EBC870"/>
<path d="M110.463 280.005C110.463 280.005 95.3701 231.603 111.707 195.494C116.624 184.786 127.667 165.482 200.522 140.867C200.522 140.867 102.491 151.211 94.8841 182.275C90.8174 201.747 83.621 219.056 110.463 280.005Z" fill="#EBC870"/>
<path d="M291.193 0.434326C291.193 0.434326 306.286 48.8363 289.95 84.9512C285.033 95.6589 273.989 114.957 201.129 139.572C201.129 139.572 299.165 129.229 306.772 98.1696C310.862 78.7035 318.047 61.4068 291.193 0.434326Z" fill="#EBC870"/>
<path d="M201.141 140.086C201.141 140.086 295.775 127.122 304.533 102.392C313.292 77.6618 318.897 75.1627 291.228 0C291.228 0 341.996 79.889 321.576 115.61C309.155 128.164 304.047 136.378 201.141 140.086Z" fill="#A5CFC6"/>
<path d="M187.263 140.868C187.263 140.868 87.2539 142.557 78.5072 167.304C69.7605 192.052 78.8601 217.448 103.029 268.996C103.029 268.996 45.4756 190.369 61.4881 154.115C73.8793 141.533 73.9082 133.26 187.263 140.868Z" fill="#A5CFC6"/>
<path d="M42.6526 86.6284C42.6526 86.6284 51.4572 108.53 60.4179 115.362C65.0863 114.112 77.8361 109.739 77.8361 109.739C77.8361 109.739 74.8801 99.1989 68.2911 78.2693C57.8784 81.6072 42.6526 86.6284 42.6526 86.6284Z" fill="#EBC870"/>
<path d="M21.0403 89.2719C21.0403 89.2719 24.7311 106.013 44.0063 117.878C41.5824 117.878 32.263 119.301 16.2389 103.057C9.12354 93.4139 7.56161 88.0166 7.56161 88.0166C7.56161 88.0166 18.5818 89.914 21.0403 89.2719Z" fill="#A5CFC6"/>
<path d="M5.99971 42.2705L8.27316 45.4464C8.27316 45.4464 -2.13959 63.096 6.31788 87.0338C6.16169 87.1495 -5.35597 69.8874 5.99971 42.2705Z" fill="#A5CFC6"/>
<path d="M81.5095 16.4871C81.5095 16.4871 80.4914 20.9067 78.7038 22.6711C78.7038 22.6711 97.2154 32.4301 105.395 54.7771C105.598 55.3093 110.33 51.0516 110.231 47.1063C110.318 47.3493 103.064 24.6784 81.5095 16.4871Z" fill="#A5CFC6"/>
<path d="M67.6143 30.4516C67.6143 30.4516 87.2828 52.677 90.3083 66.1962C89.9728 66.3409 105.517 55.5174 105.517 55.5174C105.517 55.5174 100.987 36.3984 78.3105 22.9197C78.3105 22.9197 76.2511 24.4064 67.6143 30.4516Z" fill="#EBC870"/>
<path d="M38.5454 14.491L50.8787 38.1337C50.8787 38.1337 64.1376 32.4067 67.2961 30.0754C67.3193 30.0754 53.4356 15.8562 38.5454 14.491Z" fill="#EBC870"/>
<path d="M36.2603 15.4749C36.2603 15.4749 21.6709 27.7619 17.9744 46.2156C17.9744 46.2156 11.3681 46.8924 8.96157 44.7289C8.93843 44.914 13.52 27.9991 36.2603 15.4749Z" fill="#EBC870"/>
<path d="M37.157 14.8445C37.157 14.8445 23.4295 23.0706 18.3735 45.7472C18.3735 45.7472 27.9012 45.539 33.6456 43.2482C33.0285 33.644 34.2196 24.0093 37.157 14.8445Z" fill="#A5CFC6"/>
<path d="M40.1767 14.3933C40.1767 14.3933 55.2173 17.1642 67.7705 30.0645C67.7705 30.0645 76.2395 25.3903 78.4435 22.5441C78.4435 22.5384 59.8452 10.1877 40.1767 14.3933Z" fill="#A5CFC6"/>
<path d="M43.1328 12.9927C43.1328 12.9927 62.1476 6.97645 80.9137 15.8157L79.7567 13.5018C79.7567 13.5018 58.9139 3.98568 43.1328 12.9927Z" fill="#EBC870"/>
<path d="M44.955 10.3432L42.1725 12.1539L49.5192 9.96143L44.955 10.3432Z" fill="#A5CFC6"/>
<path d="M35.3579 13.4617L38.4644 14.3236L38.8866 12.1543L35.3579 13.4617Z" fill="#EBC870"/>
<path d="M27.5715 17.4646C27.5715 17.4646 21.6247 20.6925 22.3651 22.0925L33.8076 15.9084L27.5715 17.4646Z" fill="#A5CFC6"/>
<path d="M44.6599 117.803C44.6599 117.803 50.815 120.898 56.8081 120.985C60.5086 121.02 64.1995 120.604 67.7994 119.747C67.7994 119.747 60.7361 116.71 59.7006 115.275" fill="#A5CFC6"/>
<path d="M94.1148 101.379C94.1148 101.379 91.9454 107.216 90.4067 109.825C90.4067 109.825 99.8244 103.618 103.666 95.3632C103.712 95.3054 94.1148 101.379 94.1148 101.379Z" fill="#EBC870"/>
<path d="M110.735 281C110.735 281 22.1973 174.425 46.3549 139.063C70.5125 103.7 331.063 178.035 355.267 142.672C379.47 107.309 290.858 0.758057 290.858 0.758057" stroke="#6A737A" stroke-linecap="round" stroke-linejoin="round"/>
<path d="M110.735 281C110.735 281 39.8585 186.533 64.0335 151.17C88.2084 115.807 313.361 165.968 337.553 130.605C361.746 95.2422 290.858 0.775391 290.858 0.775391" stroke="#6A737A" stroke-linecap="round" stroke-linejoin="round"/>
<path d="M110.735 281C110.735 281 57.5428 198.6 81.7178 163.238C105.893 127.875 295.7 153.86 319.875 118.497C344.05 83.1345 290.858 0.758057 290.858 0.758057" stroke="#6A737A" stroke-linecap="round" stroke-linejoin="round"/>
<path d="M110.735 281C110.735 281 75.2214 210.708 99.3963 175.345C123.571 139.982 278.016 141.793 302.196 106.424C326.377 71.0557 290.858 0.775391 290.858 0.775391" stroke="#6A737A" stroke-linecap="round" stroke-linejoin="round"/>
<path d="M110.735 281C110.735 281 92.9057 222.798 117.098 187.436C141.29 152.073 260.354 129.703 284.529 94.3398C308.704 58.9769 290.893 0.775391 290.893 0.775391" stroke="#6A737A" stroke-linecap="round" stroke-linejoin="round"/>
<path d="M66.6424 9.759C70.632 10.483 74.5403 11.5991 78.3105 13.0911C83.1177 15.2546 83.5169 15.405 86.5366 17.2562C91.0835 20.2875 91.3554 20.4668 93.9007 22.6477C98.0253 26.512 98.1873 26.6624 100.264 29.1788C103.735 33.743 103.891 33.9224 105.557 36.7685C108.305 41.9749 108.409 42.1774 109.607 45.3359C111.458 50.9646 111.568 51.3001 112.273 55.0198C113.083 60.8393 113.101 60.9551 113.153 64.2293C113.002 69.8811 112.997 70.1009 112.511 73.352C111.481 78.7146 111.417 79.0327 110.393 82.2375C108.577 87.172 108.432 87.5712 106.807 90.7587C105.331 93.5788 103.624 96.2721 101.704 98.8112C99.6077 101.526 97.2855 104.059 94.7627 106.384C91.3849 109.424 87.6585 112.053 83.6615 114.216C82.8053 114.662 81.926 115.113 81.0757 115.524C80.2947 115.882 79.5138 116.241 78.7155 116.571C77.9171 116.9 77.2056 117.149 76.442 117.462C75.6784 117.774 74.9148 118 74.128 118.248C73.3413 118.497 72.5083 118.74 71.6868 118.96C70.8654 119.18 69.882 119.423 68.9737 119.619C67.0416 120.013 66.8854 120.042 65.7805 120.198C63.3451 120.533 63.2004 120.556 61.7716 120.678C58.7345 120.863 58.4164 120.88 56.3569 120.857C53.7204 120.808 51.0901 120.582 48.4838 120.18C45.2931 119.663 42.1494 118.89 39.0834 117.867C34.2993 116.033 33.8018 115.842 30.5738 114.141C25.8881 111.382 25.6046 111.214 22.9089 109.155C18.6859 105.614 18.4314 105.406 16.1753 102.999C12.4556 98.6666 12.311 98.493 10.4946 95.7568C8.2154 92.2151 6.30601 88.4486 4.79647 84.5168C2.9106 78.7666 2.87589 78.6567 2.23956 75.3941C1.36604 69.5745 1.34869 69.4646 1.26191 66.1845C1.35447 60.5269 1.36025 60.3071 1.81147 57.056C2.81225 51.5662 2.84697 51.3522 3.84197 48.1473C5.57743 43.1897 5.75097 42.7848 7.31288 39.5973C9.62683 35.4322 9.96813 34.7901 12.3226 31.4985C14.3787 28.7849 16.654 26.2445 19.1256 23.903C22.6229 20.67 26.5094 17.8853 30.6953 15.6133C31.5515 15.1678 32.4308 14.7224 33.2811 14.3117C34.0621 13.953 34.8488 13.5944 35.6414 13.2588C36.4339 12.9233 37.1512 12.6804 37.9148 12.3738C38.6784 12.0672 39.442 11.83 40.2288 11.587C41.0155 11.3441 41.8485 11.0895 42.67 10.8697C43.4914 10.6499 44.4748 10.4069 45.3831 10.2102C47.3152 9.82265 47.4714 9.78794 48.5763 9.63175C51.0117 9.29623 51.1564 9.27887 52.5852 9.15739C55.6223 8.97227 55.9405 8.95491 57.9999 8.97227C60.5039 9.0171 63.0024 9.22386 65.4797 9.59125C60.3601 9.05326 50.8324 8.05247 38.609 14.4679C38.5803 14.4624 38.5509 14.4624 38.5222 14.4679M38.5222 14.4679L38.4007 14.572M38.5222 14.4679H38.4123C38.4155 14.4948 38.4155 14.522 38.4123 14.5489C38.4095 14.5239 38.4095 14.4987 38.4123 14.4737L38.2966 14.5142L38.4007 14.5489H38.2966H38.2677L38.2041 14.5893M38.2041 14.5893H38.4007M38.2041 14.5893L38.1578 14.6356L38.4007 14.5662L38.1578 14.6414C38.1578 14.6414 38.1578 14.6414 38.1578 14.6703L38.395 14.5662L38.1636 14.6703H38.1983L38.3718 14.5546L38.2041 14.6703H38.3024M38.3024 14.6703L38.3718 14.572L38.4181 14.6356M38.3024 14.6703C38.3417 14.6614 38.3804 14.6498 38.4181 14.6356M38.4181 14.6356L38.5049 14.5951M38.5049 14.5951H38.3487M38.5049 14.5951L38.5743 14.5431M38.5743 14.5431L38.3487 14.5893M38.5743 14.5431C38.5743 14.5431 38.5743 14.5142 38.5743 14.5026M38.5743 14.5026L38.3313 14.5893M38.5743 14.5026C38.5743 14.5026 38.5743 14.5026 38.5396 14.5026C47.7491 9.65488 57.4561 8.24338 66.5499 9.81108M65.8673 9.69537C56.9007 8.2723 47.3557 9.76479 38.3313 14.6125C47.3615 9.76479 56.9007 8.24916 65.8673 9.69537ZM65.8673 9.69537C63.2403 9.28663 60.5886 9.05663 57.9304 9.00697C54.6446 9.00697 54.5116 9.00698 52.5158 9.19209C49.8895 9.4582 49.8895 9.4582 48.5069 9.66646C46.3839 10.0309 46.3838 10.0309 45.3136 10.2449C44.4054 10.4532 43.4972 10.6614 42.6005 10.9044C41.7039 11.1474 40.9692 11.3614 40.1593 11.6217C39.3494 11.8821 38.6206 12.125 37.8454 12.4085C37.0702 12.6919 36.324 12.9869 35.5719 13.2935C34.8199 13.6001 33.9927 13.9762 33.2117 14.3464C32.344 14.7687 31.4763 15.191 30.6259 15.648C26.4448 17.9276 22.5591 20.7116 19.0562 23.9377C16.6204 26.2691 14.3818 28.798 12.3631 31.4985C10.4783 34.0592 8.80302 36.7676 7.35337 39.5973C5.15513 44.3525 4.97001 44.7401 3.88246 48.1473C2.43624 53.4058 2.34947 53.7182 1.85197 57.056C1.27349 62.6674 1.27349 62.8872 1.30241 66.1845C1.65529 71.9231 1.67264 72.143 2.28005 75.3941C3.61636 81.1269 3.66842 81.3467 4.83696 84.5168C6.93687 89.5149 7.43436 90.7008 10.535 95.7568C13.9423 100.512 14.006 100.599 16.2158 102.999C20.2131 106.979 20.3635 107.136 22.9494 109.155C27.3864 112.33 27.6525 112.521 30.6143 114.141C35.329 116.455 35.7108 116.663 39.1239 117.867C42.1879 118.897 45.3322 119.671 48.5243 120.18C51.149 120.592 53.7989 120.822 56.4553 120.869C58.262 120.901 60.0693 120.841 61.8699 120.69C64.4962 120.423 64.4963 120.423 65.8788 120.209C68.0019 119.845 68.0019 119.845 69.0721 119.631C69.9803 119.423 70.8885 119.214 71.7852 118.971C72.6818 118.728 73.4165 118.514 74.2264 118.26C75.0363 118.005 75.7652 117.751 76.5403 117.473C77.3155 117.195 78.0618 116.895 78.8138 116.582C79.5658 116.27 80.3989 115.9 81.174 115.535C82.0418 115.113 82.9095 114.685 83.7599 114.228C87.7527 112.058 91.4783 109.429 94.861 106.395C97.3882 104.075 99.7107 101.542 101.803 98.8228C103.721 96.2828 105.428 93.5896 106.905 90.7702C109.109 86.1423 109.341 85.6622 110.492 82.2491C111.984 77.0427 112.077 76.7014 112.609 73.3636C113.24 67.868 113.274 67.5382 113.251 64.2408C112.956 58.508 112.944 58.2824 112.372 55.0313C111.122 49.4142 111.018 48.9572 109.705 45.3475C107.362 39.7709 107.322 39.661 105.656 36.7801C102.503 31.8109 102.439 31.7184 100.362 29.1904C96.5791 24.9732 96.4287 24.8112 93.9991 22.6592C89.6373 19.1883 89.4695 19.0263 86.6349 17.2677C81.9376 14.6125 81.6542 14.4563 78.4089 13.1027C74.4249 11.5044 70.2802 10.3407 66.0466 9.63175" stroke="#6A737A" stroke-miterlimit="10"/>
<path d="M93.8024 101.819L93.8891 101.518C92.7591 102.182 91.5713 102.851 90.3256 103.526C86.2727 105.675 82.1074 107.606 77.8477 109.31C77.8477 109.386 77.8766 109.467 77.894 109.542C82.1194 107.837 86.25 105.906 90.2678 103.757C91.5058 103.086 92.6859 102.426 93.8024 101.767M44.7004 117.826L44.3591 117.664C42.4826 117.755 40.6016 117.665 38.742 117.398C37.7783 117.259 36.8333 117.013 35.9248 116.663L36.4049 116.854C37.2845 117.188 38.1982 117.425 39.1296 117.56C40.9739 117.825 42.8393 117.914 44.7004 117.826ZM59.8452 115.454L59.637 115.275C54.7901 116.529 49.8355 117.323 44.8393 117.646L45.1748 117.803C50.1279 117.483 55.0398 116.696 59.8452 115.454ZM77.2576 109.825C77.2576 109.75 77.2229 109.675 77.1998 109.6C71.6732 111.805 66.0095 113.651 60.2444 115.124L60.4468 115.304C66.163 113.843 71.7784 112.013 77.2576 109.825ZM104.574 93.6681L104.753 93.2979C102.48 95.7102 98.9682 98.3828 94.404 101.142L94.3114 101.443C98.8641 98.7067 102.318 96.0573 104.574 93.6681ZM106.986 90.4228L107.217 89.9658C106.62 91.0796 105.877 92.1087 105.008 93.026L104.823 93.3962C105.67 92.503 106.397 91.5035 106.986 90.4228Z" stroke="#6A737A" stroke-miterlimit="10"/>
<path d="M20.566 89.521L20.4792 89.2896L20.3924 89.0524C17.7488 89.1826 15.0987 89.0586 12.4787 88.6822C10.5899 88.4496 8.7623 87.8607 7.09303 86.9467L7.1798 87.1781L7.26658 87.4153C8.93745 88.3256 10.7643 88.9142 12.6523 89.1507C15.2721 89.5291 17.9221 89.6551 20.566 89.5268M66.8102 78.1653L66.7234 77.9339L66.6366 77.7025C58.8534 80.8068 50.8766 83.4019 42.7567 85.4716L42.8435 85.7087L42.9303 85.9401C51.0511 83.8692 59.0281 81.2701 66.8102 78.1595M109.913 46.2213L109.826 45.9841L109.74 45.7527C110.231 48.1014 108.866 51.0921 105.789 54.4589L105.875 54.6903L105.962 54.9275C109.04 51.5607 110.405 48.5641 109.913 46.2502M6.98891 87.207C6.9542 87.1318 6.92527 87.0508 6.89635 86.9756L6.80957 86.7385C5.85519 86.1559 5.11613 85.2788 4.70388 84.2394L4.79644 84.4939L4.889 84.7427C5.6526 86.1368 5.73359 86.2814 6.98891 87.207ZM42.0741 86.16L41.9873 85.9228L41.9006 85.6914C34.2356 87.583 27.0797 88.7516 21.075 89.035L21.1618 89.2664L21.2486 89.4978C27.2591 89.2202 34.4207 88.0458 42.0741 86.16ZM90.3083 66.7865C90.2736 66.7113 90.2447 66.6303 90.2157 66.5551L90.129 66.3179C88.5497 67.255 86.8721 68.198 85.1135 69.1467C79.4062 72.1881 73.5396 74.9206 67.5391 77.3323L67.6258 77.5637L67.7126 77.8008C73.7132 75.3891 79.5798 72.6567 85.287 69.6153C87.0456 68.6666 88.7194 67.7236 90.3083 66.7865ZM105.603 55.3093L105.517 55.0721L105.43 54.8407C102.225 58.2364 97.3311 62.0024 90.8579 65.8898L90.9446 66.1212L91.0314 66.3526C97.4931 62.471 102.399 58.705 105.603 55.3093ZM109.641 45.3825L109.549 45.1279C109.595 45.261 109.641 45.3882 109.676 45.5213L109.763 45.7527L109.85 45.9899C109.815 45.8684 109.78 45.7527 109.74 45.637L109.641 45.3825Z" stroke="#6A737A" stroke-miterlimit="10"/>
<path d="M50.7572 38.6893L50.5837 38.3075C45.1025 40.4954 39.4852 42.3253 33.7671 43.7858C33.7671 43.9246 33.7671 44.0693 33.7671 44.2139C39.5357 42.7457 45.2016 40.9002 50.7283 38.6893M67.4176 30.5905L67.0994 30.2724C65.983 30.9318 64.7855 31.5971 63.5649 32.2624C59.5485 34.4101 55.4199 36.3412 51.1969 38.0472L51.3704 38.429C55.6315 36.7198 59.797 34.7809 63.8484 32.621C65.1037 31.95 66.2896 31.2789 67.4176 30.6137M7.15669 39.9794C7.22611 39.8463 7.28975 39.7133 7.35916 39.586C7.39499 39.5027 7.43555 39.4216 7.48064 39.343L7.35337 39.5802L7.23768 39.8116L7.15669 39.9794ZM8.27316 45.1337L8.46407 44.694C6.72861 43.5371 6.36417 41.8595 7.24925 39.8174L7.05257 40.2166C6.15013 42.276 6.52614 43.9767 8.27316 45.1337ZM17.9165 46.7592C17.9512 46.6088 17.986 46.4584 18.0265 46.3022C16.1635 46.3917 14.2963 46.3046 12.4498 46.0419C11.121 45.8746 9.8356 45.4585 8.66076 44.8155L8.46986 45.2551C9.65483 45.9056 10.9523 46.3257 12.2937 46.4931C14.1552 46.7608 16.038 46.8499 17.9165 46.7592ZM33.1886 44.3643V43.9304C28.3838 45.1768 23.4717 45.9652 18.5182 46.2849L18.414 46.7419C23.4027 46.416 28.3495 45.62 33.1886 44.3643ZM78.3105 22.4628C78.1775 22.376 78.0386 22.295 77.8998 22.2141C75.6437 24.6032 72.1901 27.2584 67.6374 29.9947L67.9614 30.3071C72.5488 27.5477 76.0602 24.8751 78.3105 22.4628ZM81.3707 16.0069L80.9368 15.816C81.2781 17.4705 80.3179 19.5761 78.1543 21.9479L78.565 22.1909C80.7459 19.796 81.7178 17.6787 81.3707 16.0069ZM78.3452 13.1144L78.0907 13.0161C79.6642 13.6409 80.584 14.5433 80.8906 15.654L81.3244 15.8449C81.0236 14.74 80.1212 13.8434 78.5824 13.2128L78.3452 13.1144Z" stroke="#6A737A" stroke-miterlimit="10"/>
<path d="M38.6668 14.4739C52.3688 9.47756 67.4599 9.89129 80.8674 15.6309L81.3013 15.8218C87.7679 18.6249 93.6091 22.6921 98.4818 27.7843C103.355 32.8766 107.16 38.8912 109.676 45.475L109.763 45.7064L109.85 45.9436C110.364 47.3435 110.816 48.7608 111.209 50.1781L112.007 53.4928C111.488 51.0154 110.788 48.5793 109.913 46.2039L109.826 45.9667L109.74 45.7353C107.217 39.1437 103.408 33.1202 98.533 28.0161C93.6584 22.9121 87.8163 18.8297 81.3476 16.0069L80.9137 15.816C67.5172 10.0277 52.4212 9.5479 38.6842 14.4739L38.4412 14.5607" stroke="#6A737A" stroke-miterlimit="10"/>
<path d="M38.6495 14.5143C51.9547 11.7838 66.0408 14.8151 78.1312 21.9478L78.5419 22.1908C90.586 29.4103 100.6 40.7023 105.789 54.4414L105.875 54.6728L105.962 54.9099C111.03 68.6548 110.301 82.2261 105.008 93.09L104.823 93.4603C103.238 96.6453 101.24 99.6076 98.8815 102.271L98.2625 102.947C100.79 100.188 102.914 97.0857 104.574 93.7322L104.753 93.3619C109.959 82.5558 110.671 69.0655 105.603 55.286L105.517 55.0488L105.43 54.8174C100.224 41.0957 90.2678 29.7458 78.2874 22.4569C78.1543 22.3701 78.0155 22.2891 77.8767 22.2081C65.8499 15.0118 51.8448 11.8822 38.6495 14.5085L38.4239 14.5547" stroke="#6A737A" stroke-miterlimit="10"/>
<path d="M38.5801 14.5662C47.8069 14.9537 58.2081 20.808 67.6143 29.9944L67.9383 30.3068C78.0027 40.4114 85.8138 52.5322 90.8579 65.8721L90.9447 66.1035L91.0314 66.3349C96.1163 80.0739 97.0361 92.3668 94.404 101.212L94.3115 101.513C92.79 106.424 90.1521 110.242 86.5135 112.596L86.1259 112.834C89.7414 110.52 92.333 106.748 93.8024 101.842L93.8892 101.542C96.3882 92.7833 95.3932 80.5252 90.3083 66.7919C90.2736 66.7167 90.2447 66.6357 90.2158 66.5605L90.129 66.3233C85.0953 52.9928 77.3657 40.844 67.4234 30.6365L67.1052 30.3183C57.8495 21.0626 47.6045 15.0984 38.5801 14.5951H38.4239" stroke="#6A737A" stroke-miterlimit="10"/>
<path d="M38.4701 14.6242C41.3336 18.1298 45.9905 26.8071 51.1968 38.0529L51.3704 38.4347C56.6057 49.7325 62.3963 63.5641 67.5333 77.3148L67.6201 77.5461L67.7068 77.7833C72.8264 91.4992 76.3147 102.543 77.8419 109.34C77.8419 109.415 77.8708 109.496 77.8882 109.571C79.1088 115.535 78.7386 116.044 78.1774 116.808L77.9229 116.906C78.5766 116.64 78.3163 114.135 77.2519 109.826C77.2519 109.75 77.2171 109.675 77.194 109.6C75.5106 102.867 71.9182 91.8637 66.7813 78.142L66.6945 77.9106L66.6077 77.6792C61.465 63.9228 55.7784 50.0565 50.7051 38.6892L50.5316 38.3074C45.4756 26.998 41.056 18.2282 38.4412 14.6242L38.3949 14.5605" stroke="#6A737A" stroke-miterlimit="10"/>
<path d="M38.3544 14.6589C34.4554 20.3917 32.9803 31.0763 33.7265 43.7856C33.7265 43.9245 33.7265 44.0691 33.7265 44.2137C34.7735 58.3237 37.8137 72.2142 42.7567 85.4714L42.8435 85.7085L42.9303 85.9399C48.073 99.6501 54.3033 109.791 60.2444 115.142L60.4468 115.321C64.1491 118.59 67.7358 119.99 70.8596 119.209L70.5646 119.284C67.3077 120.071 63.6227 118.705 59.8336 115.472L59.6254 115.292C53.5339 109.982 47.2111 99.8641 42.0625 86.154L41.9758 85.9168L41.889 85.6854C36.963 72.4216 34.0196 58.504 33.1539 44.3815V43.9476C32.5407 31.2209 34.2241 20.4669 38.3602 14.6762L38.4296 14.5779" stroke="#6A737A" stroke-miterlimit="10"/>
<path d="M38.2561 14.6762C28.4219 21.3751 21.6073 32.9448 18.4777 46.2847L18.3735 46.7417C15.2145 60.7998 16.15 75.4687 21.0693 89.0117L21.1561 89.2431L21.2428 89.4745C26.4145 103.185 35.0397 112.932 44.8393 117.647L45.1748 117.803C49.6984 119.966 54.6779 121.004 59.689 120.828H59.0816C54.1176 120.954 49.1929 119.918 44.7004 117.803L44.3591 117.641C34.4381 112.932 25.7377 103.179 20.566 89.4802L20.4792 89.2489L20.3925 89.0117C15.474 75.461 14.6057 60.7717 17.8934 46.7359C17.9281 46.5855 17.9628 46.4351 18.0033 46.2789C21.2544 32.9332 28.2541 21.3577 38.2503 14.6531L38.4239 14.5374L38.2561 14.6531" stroke="#6A737A" stroke-miterlimit="10"/>
<path d="M38.1925 14.6651C24.9388 20.6968 14.4036 31.4443 8.63762 44.8158L8.44672 45.2554C2.9106 58.2714 2.02552 73.1616 7.09306 86.9065L7.17983 87.1379L7.26661 87.375C9.63262 92.9227 14.5555 104.464 28.1326 112.707L26.131 111.434C17.3666 105.567 10.6698 97.0913 6.98894 87.2073C6.95423 87.1321 6.9253 87.0511 6.89638 86.9759L6.8096 86.7387C1.74784 72.9765 2.66186 58.1036 8.25003 45.1282L8.44093 44.6885C14.273 31.3254 24.8795 20.6178 38.1867 14.6593L38.4239 14.5552L38.1925 14.6593" stroke="#6A737A" stroke-miterlimit="10"/>
<path d="M38.1809 14.6358C24.008 18.824 13.2308 28.1261 7.2261 39.8173L7.02942 40.2164L5.79146 42.8717L6.60134 41.0668C6.77488 40.7023 6.95422 40.3379 7.13355 39.9792C7.20297 39.8462 7.2666 39.7131 7.33602 39.5859C13.3118 27.9525 24.0485 18.7604 38.1809 14.63L38.4239 14.5605L38.1809 14.6358Z" stroke="#6A737A" stroke-miterlimit="10"/>
<path d="M38.2272 14.5835C32.4147 15.1782 26.9021 17.4561 22.3651 21.1377L22.7642 20.8254C27.1992 17.2808 32.5743 15.111 38.2272 14.5835ZM38.2272 14.5835H38.4239" stroke="#6A737A" stroke-miterlimit="10"/>
<path d="M38.3198 14.5315C35.8959 13.953 34.8951 13.7506 32.5985 14.6588L32.882 14.52C34.3398 13.8142 36.1562 13.7853 38.3198 14.52L38.4239 14.5547H38.3198" stroke="#6A737A" stroke-miterlimit="10"/>
<path d="M38.4354 14.4853C38.6437 12.8539 39.1007 11.9573 39.7659 11.7432L40.0263 11.6565C39.2742 11.8995 38.7362 12.8135 38.4354 14.4795C38.4386 14.5064 38.4386 14.5336 38.4354 14.5605C38.4327 14.5355 38.4327 14.5103 38.4354 14.4853Z" stroke="#6A737A" stroke-miterlimit="10"/>
<path d="M38.5454 14.4563C41.2284 11.9774 44.568 10.3227 48.1656 9.6896L48.53 9.62598C44.8126 10.2612 41.3509 11.9359 38.5454 14.4563ZM38.5454 14.4563L38.4239 14.5604" stroke="#6A737A" stroke-miterlimit="10"/>
<path d="M195.541 253.094V250.919L205.954 249.565C206.046 244.143 206.092 240.078 206.092 237.37V208.041L196.605 208.921V206.375L212.595 202.447L213.537 203.194L213.335 213.965V237.399C213.335 240.022 213.381 244.017 213.474 249.386V249.594L223.586 250.919V253.088L195.541 253.094Z" fill="#A2CAC1" stroke="#6A737A" stroke-miterlimit="10"/>
<path d="M233.744 253.094V250.919L244.157 249.565C244.249 244.143 244.296 240.078 244.296 237.37V208.041L234.808 208.921V206.375L250.798 202.447L251.741 203.194L251.538 213.965V237.399C251.538 240.022 251.585 244.017 251.677 249.386V249.594L261.789 250.919V253.088L233.744 253.094Z" fill="#EBEBEB" stroke="#6A737A" stroke-miterlimit="10"/>
<path d="M282.105 254.106C276.209 254.106 273.26 251.057 273.26 244.96V242.183C273.307 240.65 273.33 239.383 273.33 238.394V220.507H267.14V218.072L273.706 217.326L276.02 206.965H280.896L280.561 217.459H290.112V220.507H280.48V244.96C280.48 248.62 281.947 250.45 284.882 250.45C286.328 250.45 287.977 249.75 289.828 248.35L291.182 249.843C289.196 252.685 286.17 254.106 282.105 254.106Z" fill="#E4C36F" stroke="#6A737A" stroke-miterlimit="10"/>
<path d="M293.826 253.093V250.918L299.246 250.172C299.335 245.024 299.379 240.756 299.379 237.37V203.482L293.554 202.944V200.845L305.702 197.952L306.651 198.496L306.448 209.129V223.423C310.555 218.772 315.002 216.446 319.788 216.446C323.085 216.446 325.525 217.484 327.106 219.559C328.826 221.73 329.684 225.141 329.68 229.792V237.376C329.68 240.847 329.725 245.114 329.813 250.178L334.759 250.924V253.093H317.058V250.918L322.264 250.172C322.349 245.116 322.393 240.849 322.397 237.37V229.647C322.397 226.535 321.9 224.3 320.905 222.943C320.002 221.722 318.539 221.115 316.502 221.115C313.251 221.115 309.933 222.694 306.546 225.853V237.37C306.546 240.841 306.591 245.108 306.68 250.172L311.493 250.918V253.088L293.826 253.093Z" fill="#A2CAC1" stroke="#6A737A" stroke-miterlimit="10"/>
</svg>
