<?xml version="1.0" encoding="UTF-8" standalone="no"?>
<svg
   xmlns:dc="http://purl.org/dc/elements/1.1/"
   xmlns:cc="http://creativecommons.org/ns#"
   xmlns:rdf="http://www.w3.org/1999/02/22-rdf-syntax-ns#"
   xmlns:svg="http://www.w3.org/2000/svg"
   xmlns="http://www.w3.org/2000/svg"
   xmlns:sodipodi="http://sodipodi.sourceforge.net/DTD/sodipodi-0.dtd"
   xmlns:inkscape="http://www.inkscape.org/namespaces/inkscape"
   viewBox="0 0 1280 288.45667"
   version="1.1"
   id="svg8"
   inkscape:version="1.0.1 (3bc2e813f5, 2020-09-07)"
   sodipodi:docname="BeReal_(2022).svg">
  <defs
     id="defs2" />
  <sodipodi:namedview
     id="base"
     pagecolor="#ffffff"
     bordercolor="#666666"
     borderopacity="1.0"
     inkscape:pageopacity="0.0"
     inkscape:pageshadow="2"
     inkscape:zoom="0.53984375"
     inkscape:cx="640"
     inkscape:cy="144.22833"
     inkscape:document-units="mm"
     inkscape:current-layer="layer1"
     inkscape:document-rotation="0"
     showgrid="false"
     showguides="false"
     inkscape:guide-bbox="true"
     inkscape:snap-intersection-paths="false"
     inkscape:object-paths="false"
     inkscape:snap-smooth-nodes="true"
     inkscape:window-width="1366"
     inkscape:window-height="706"
     inkscape:window-x="-8"
     inkscape:window-y="-8"
     inkscape:window-maximized="1" />
  <g
     inkscape:label="Layer 1"
     inkscape:groupmode="layer"
     id="layer1"
     transform="translate(4.3057571,-97.302143)">
    <g
       id="g928"
       transform="matrix(6.0606469,0,0,6.0606469,21.789915,-492.41181)">
      <path
         id="path876"
         style="fill:#050505;fill-opacity:1;stroke:none;stroke-width:0.999999px;stroke-linecap:butt;stroke-linejoin:miter;stroke-opacity:1"
         d="m 217.14648,48.307001 c -18.73378,0 -32.99153,5.747399 -43.10035,15.009836 C 160.13926,76.05932 153.807,93.186416 153.807,115.12305 c 0,20.51172 6.39392,37.33708 20.88062,50.07895 10.74382,9.4498 26.89439,15.798 48.08777,15.798 15.57851,0 33.80057,-4.42901 43.79761,-12.9707 L 256.648,143.37 c -10.55156,4.87665 -19.40203,8.87476 -31.41753,8.905 -15.74098,0.0413 -31.31697,-7.46374 -35.44947,-27.429 h 85.081 v -10.92804 c 0,-15.872098 -4.26579,-33.899734 -15.19793,-47.783925 -9.56446,-12.147199 -23.15632,-17.827034 -42.51759,-17.827034 z m -0.30664,29.155 c 18.40634,0 24.88275,16.844748 25.59216,24.769999 h -52.349 c 3.17028,-16.970567 13.44363,-24.769999 26.75684,-24.769999 z"
         transform="matrix(0.26458333,0,0,0.26458333,-4.535717,97.007591)"
         sodipodi:nodetypes="scscscccccscssccs" />
      <path
         id="path881"
         style="fill:#050505;fill-opacity:1;stroke:none;stroke-width:0.264583px;stroke-linecap:butt;stroke-linejoin:miter;stroke-opacity:1"
         d="m 130.70697,109.78882 c -4.95665,0 -8.72901,1.52066 -11.40363,3.97135 -3.67953,3.37145 -5.35494,7.90299 -5.35494,13.70706 0,5.42706 1.69172,9.87877 5.52466,13.25006 2.84264,2.50026 7.11581,4.17988 12.72323,4.17988 4.12181,0 8.94306,-1.17184 11.58811,-3.43183 l -2.62599,-6.52444 c -2.79176,1.29028 -5.13345,2.34812 -8.31255,2.35612 -4.1648,0.0109 -8.28595,-1.97478 -9.37934,-7.25726 h 22.51101 v -2.89138 c 0,-4.19949 -1.12867,-8.9693 -4.02113,-12.64283 -2.5306,-3.21394 -6.12676,-4.71673 -11.24943,-4.71673 z m -0.0811,7.71393 c 4.87001,0 6.58356,4.45683 6.77126,6.55372 h -13.85068 c 0.83881,-4.49013 3.55697,-6.55372 7.07942,-6.55372 z"
         sodipodi:nodetypes="scscscccccscssccs" />
      <path
         id="path883"
         style="fill:#050505;fill-opacity:1;fill-rule:evenodd;stroke-width:179.563;paint-order:stroke fill markers"
         d="M 0.86914062,1.114 V 177.902 H 77.298828 c 28.019362,0 58.694172,-15.20847 58.694172,-51.21645 0,-12.52724 -3.14374,-22.81197 -10.60935,-31.57235 -4.05686,-4.760443 -9.41958,-9.432558 -16.30943,-13.046199 9.0009,-8.0688 15.97078,-16.515368 15.97078,-32.877548 0,-13.146179 -3.34586,-23.520892 -10.0118,-31.318359 C 108.36727,10.073622 92.882069,1.1799192 69.677734,1.114 Z M 34.577,29.669 h 29.185001 c 23.041086,0 25.358614,13.174649 25.358614,20.982001 0,19.057479 -17.003043,22.415 -29.112614,22.415 H 34.577 Z m 0,71.126 h 39.719875 c 12.825944,0 26.189455,6.76618 26.189455,25.89055 0,17.47925 -16.83932,23.33593 -27.763674,23.33593 H 34.577 Z"
         transform="matrix(0.26458333,0,0,0.26458333,-4.535717,97.007591)"
         sodipodi:nodetypes="cccsccsccccssscccssscc" />
      <path
         id="path885"
         style="fill:#050505;fill-opacity:1;fill-rule:evenodd;stroke-width:179.563;paint-order:stroke fill markers"
         d="M 300.9043,1.1132812 V 177.90234 h 33.60742 v -67.07226 h 23.1543 c 2.71222,0 5.49394,-0.13287 8.30859,-0.39649 l 37.60742,67.46875 h 35.63086 l -43.16016,-75.82031 c 17.01314,-8.515114 30.25,-23.620098 30.25,-46.962889 C 426.30273,40.626467 422.12871,29.539359 414,21.041016 399.40547,5.7828588 374.15929,1.1132812 360.0293,1.1132812 Z M 334.51172,29.46875 h 24 c 9.86351,0 22.02188,3.782963 27.25195,10.914062 3.03313,4.135597 4.64258,9.604984 4.64258,16.636719 0,7.208769 -2.09529,12.539755 -5.33008,16.333985 -6.63562,7.783256 -20.60534,10.039886 -29.41211,9.998046 h -21.15234 z"
         transform="matrix(0.26458333,0,0,0.26458333,-4.535717,97.007591)"
         sodipodi:nodetypes="ccccsccccscsccscscccc" />
      <path
         id="path899"
         style="fill:#050505;fill-opacity:1;stroke:none;stroke-width:0.999999px;stroke-linecap:butt;stroke-linejoin:miter;stroke-opacity:1"
         d="m 639.65234,49.728516 c -38.35967,0 -54.70312,22.483714 -54.70312,41.253906 h 31.52539 c 0.71633,-8.01309 9.02838,-15.60317 22.31055,-15.574219 12.0983,0.02646 20.77343,6.736707 20.77343,17.341797 v 9.31055 c -32.04756,1.95288 -53.07013,1.28533 -67.53711,12.8164 -8.02148,6.39364 -12.90625,14.26805 -12.90625,27.23633 0,22.05094 17.68604,37.9082 42.39258,37.9082 15.2578,0 30.86281,-6.85757 38.03711,-20.8496 h 0.62891 v 18.73046 h 33.33594 V 91.950151 c 0,-23.403977 -17.94983,-42.221635 -53.85743,-42.221635 z M 659.55859,122.802 v 11.04761 c 0,12.20058 -13.63738,21.70871 -26.74414,21.49139 -11.43847,-0.18974 -19.54687,-5.84834 -19.54687,-15.241 0,-4.25414 1.71516,-7.10094 4.42944,-9.81522 7.27052,-7.27052 19.74888,-5.57895 41.86157,-7.48278 z"
         transform="matrix(0.26458333,0,0,0.26458333,-4.535717,97.007591)"
         sodipodi:nodetypes="sccssccssccccsscssscc" />
      <path
         id="rect914"
         style="fill:#050505;fill-opacity:1;fill-rule:evenodd;stroke:none;stroke-width:21.4481;paint-order:stroke fill markers"
         d="m 184.00293,97.302338 h 9.44748 v 46.775152 h -9.44748 z" />
      <path
         id="rect916"
         style="fill:#050505;fill-opacity:1;fill-rule:evenodd;stroke:none;stroke-width:19.5391;paint-order:stroke fill markers"
         d="m 198.13591,134.638 h 8.75691 v 9.43949 h -8.75691 z" />
    </g>
  </g>
  <metadata
     id="metadata930">
    <rdf:RDF>
      <cc:Work
         rdf:about="">
        <dc:title></dc:title>
      </cc:Work>
    </rdf:RDF>
  </metadata>
</svg>
