<?xml version="1.0" encoding="UTF-8"?>
<svg id="_圖層_2" data-name="圖層 2" xmlns="http://www.w3.org/2000/svg" viewBox="0 0 800 306.66">
  <defs>
    <style>
      .cls-1 {
        fill: #fff;
        stroke-width: 0px;
      }
    </style>
  </defs>
  <g id="Layer_1" data-name="Layer 1">
    <path class="cls-1" d="m797.9,112.8c-2.12-3.31-5.57-5.51-9.45-6.03l-200-26.67c-7.21-.95-14,4.16-14.99,11.45s4.16,14.01,11.45,14.99l28.43,3.79v33.87l-66.67-7.15v-66.36l24.43-36.64c2.67-4,2.97-9.12.81-13.4-2.17-4.29-6.48-7.09-11.28-7.32L280.63,0c-4.49-.04-8.85,1.89-11.48,5.57l-66.67,93.33c-.27.37-.32.83-.55,1.21L14.75,80.07c-3.79-.4-7.52.81-10.33,3.33-2.8,2.53-4.41,6.13-4.41,9.92,0,117.63,137.57,213.33,306.67,213.33h426.67c5.85,0,11.03-3.81,12.75-9.41l53.33-173.33c1.15-3.75.59-7.81-1.52-11.11Zm-157.89,33.85v-32.77l53.33,7.11v31.77l-53.41-5.72c0-.13.08-.25.08-.39Zm-227.43-113.67l123.28,5.87-13.61,20.4c-1.45,2.19-2.24,4.77-2.24,7.4v67.55l-120.05-12.87,12.63-88.35Zm-125.95-6l99.19,4.72-12.35,86.39c-.01.13.04.27.03.4l-141.41-15.15,54.55-76.36Zm436.85,253h-416.81c-117.84,0-218.77-48.84-260.03-117.71l689.48,76.61-12.64,41.09Zm20.63-67.03L33.69,134.03c-2.83-8.41-5.09-16.97-6.13-25.76l724.87,77.65-8.32,27.04Zm16.31-53l-40.41-4.33v-31.08l49.29,6.57-8.88,28.84Z"/>
  </g>
</svg>